<svg width="512" height="512" viewBox="0 0 512 512" xmlns="http://www.w3.org/2000/svg">
  <defs>
    <linearGradient id="bg" x1="0" y1="0" x2="0" y2="1"><stop offset="0" stop-color="#16131f"/><stop offset="1" stop-color="#0c0a12"/></linearGradient>
    <linearGradient id="g" x1="0" y1="0" x2="0" y2="1"><stop offset="0" stop-color="#c4a3f5"/><stop offset="1" stop-color="#9b6dff"/></linearGradient>
  </defs>
  <rect width="512" height="512" rx="115" fill="url(#bg)"/>
  <!-- waving arm: from right shoulder, curving up -->
  <path d="M350 244 q44 -40 78 -22 q22 14 6 40" fill="none" stroke="url(#g)" stroke-width="26" stroke-linecap="round" stroke-linejoin="round"/>
  <!-- body -->
  <path fill="url(#g)" d="M150 236 a106 106 0 0 1 212 0 v116 q0 16 -14 16 q-13 0 -18 -13 l-8 -20 q-5 -12 -17 -12 q-12 0 -17 12 l-8 20 q-5 13 -18 13 q-13 0 -18 -13 l-8 -20 q-5 -12 -17 -12 q-12 0 -17 12 l-8 20 q-5 13 -18 13 q-14 0 -14 -16 z"/>
  <!-- round eyes -->
  <circle cx="222" cy="222" r="19" fill="#16131f"/>
  <circle cx="294" cy="222" r="19" fill="#16131f"/>
  <!-- small happy smile -->
  <path d="M236 262 q22 22 44 0" fill="none" stroke="#16131f" stroke-width="12" stroke-linecap="round"/>
</svg>
